solid foo
  facet normal  -1.000000e+00 0.000000e+00 0.000000e+00
    outer loop
      vertex  -8.683333e+00 5.183333e+00 1.591667e+01
      vertex  -8.683333e+00 5.183333e+00 1.508333e+01
      vertex  -8.683333e+00 -5.183333e+00 1.508333e+01
    endloop
  endfacet
  facet normal  -7.071068e-01 -7.071068e-01 0.000000e+00
    outer loop
      vertex  -7.683333e+00 -6.183333e+00 1.591667e+01
      vertex  -8.683333e+00 -5.183333e+00 1.591667e+01
      vertex  -8.683333e+00 -5.183333e+00 1.508333e+01
    endloop
  endfacet
  facet normal  -4.082483e-01 -4.082483e-01 -8.164966e-01
    outer loop
      vertex  -6.850000e+00 -5.350000e+00 1.425000e+01
      vertex  -7.683333e+00 -6.183333e+00 1.508333e+01
      vertex  -8.683333e+00 -5.183333e+00 1.508333e+01
    endloop
  endfacet
  facet normal  -7.071068e-01 0.000000e+00 -7.071068e-01
    outer loop
      vertex  -7.850000e+00 4.350000e+00 1.425000e+01
      vertex  -7.850000e+00 -4.350000e+00 1.425000e+01
      vertex  -8.683333e+00 -5.183333e+00 1.508333e+01
    endloop
  endfacet
  facet normal  -7.071068e-01 7.071068e-01 0.000000e+00
    outer loop
      vertex  -7.683333e+00 6.183333e+00 1.591667e+01
      vertex  -7.683333e+00 6.183333e+00 1.508333e+01
      vertex  -8.683333e+00 5.183333e+00 1.508333e+01
    endloop
  endfacet
  facet normal  -4.082483e-01 4.082483e-01 -8.164966e-01
    outer loop
      vertex  -6.850000e+00 5.350000e+00 1.425000e+01
      vertex  -7.850000e+00 4.350000e+00 1.425000e+01
      vertex  -8.683333e+00 5.183333e+00 1.508333e+01
    endloop
  endfacet
  facet normal  0.000000e+00 0.000000e+00 1.000000e+00
    outer loop
      vertex  -7.683333e+00 -6.183333e+00 1.591667e+01
      vertex  -8.683333e+00 5.183333e+00 1.591667e+01
      vertex  -8.683333e+00 -5.183333e+00 1.591667e+01
    endloop
  endfacet
  facet normal  0.000000e+00 -1.000000e+00 0.000000e+00
    outer loop
      vertex  7.683333e+00 -6.183333e+00 1.591667e+01
      vertex  -7.683333e+00 -6.183333e+00 1.591667e+01
      vertex  -7.683333e+00 -6.183333e+00 1.508333e+01
    endloop
  endfacet
  facet normal  0.000000e+00 -7.071068e-01 -7.071068e-01
    outer loop
      vertex  6.850000e+00 -5.350000e+00 1.425000e+01
      vertex  7.683333e+00 -6.183333e+00 1.508333e+01
      vertex  -7.683333e+00 -6.183333e+00 1.508333e+01
    endloop
  endfacet
  facet normal  0.000000e+00 -1.000000e+00 0.000000e+00
    outer loop
      vertex  6.850000e+00 -5.350000e+00 1.425000e+01
      vertex  -6.850000e+00 -5.350000e+00 1.425000e+01
      vertex  -6.850000e+00 -5.350000e+00 2.600000e+00
    endloop
  endfacet
  facet normal  -7.071068e-01 -7.071068e-01 0.000000e+00
    outer loop
      vertex  -6.850000e+00 -5.350000e+00 1.425000e+01
      vertex  -7.850000e+00 -4.350000e+00 1.425000e+01
      vertex  -7.850000e+00 -4.350000e+00 2.600000e+00
    endloop
  endfacet
  facet normal  -1.000000e+00 0.000000e+00 0.000000e+00
    outer loop
      vertex  -7.850000e+00 4.350000e+00 1.425000e+01
      vertex  -7.850000e+00 4.350000e+00 2.600000e+00
      vertex  -7.850000e+00 -4.350000e+00 2.600000e+00
    endloop
  endfacet
  facet normal  -7.071068e-01 7.071068e-01 0.000000e+00
    outer loop
      vertex  -6.850000e+00 5.350000e+00 1.425000e+01
      vertex  -6.850000e+00 5.350000e+00 2.600000e+00
      vertex  -7.850000e+00 4.350000e+00 2.600000e+00
    endloop
  endfacet
  facet normal  0.000000e+00 1.000000e+00 0.000000e+00
    outer loop
      vertex  7.683333e+00 6.183333e+00 1.591667e+01
      vertex  7.683333e+00 6.183333e+00 1.508333e+01
      vertex  -7.683333e+00 6.183333e+00 1.508333e+01
    endloop
  endfacet
  facet normal  0.000000e+00 7.071068e-01 -7.071068e-01
    outer loop
      vertex  6.850000e+00 5.350000e+00 1.425000e+01
      vertex  -6.850000e+00 5.350000e+00 1.425000e+01
      vertex  -7.683333e+00 6.183333e+00 1.508333e+01
    endloop
  endfacet
  facet normal  0.000000e+00 1.000000e+00 0.000000e+00
    outer loop
      vertex  6.850000e+00 5.350000e+00 1.425000e+01
      vertex  6.850000e+00 5.350000e+00 2.600000e+00
      vertex  -6.850000e+00 5.350000e+00 2.600000e+00
    endloop
  endfacet
  facet normal  7.071068e-01 7.071068e-01 0.000000e+00
    outer loop
      vertex  8.683333e+00 5.183333e+00 1.591667e+01
      vertex  8.683333e+00 5.183333e+00 1.508333e+01
      vertex  7.683333e+00 6.183333e+00 1.508333e+01
    endloop
  endfacet
  facet normal  1.000000e+00 0.000000e+00 0.000000e+00
    outer loop
      vertex  8.683333e+00 5.183333e+00 1.591667e+01
      vertex  8.683333e+00 -5.183333e+00 1.591667e+01
      vertex  8.683333e+00 -5.183333e+00 1.508333e+01
    endloop
  endfacet
  facet normal  7.071068e-01 -7.071068e-01 0.000000e+00
    outer loop
      vertex  8.683333e+00 -5.183333e+00 1.591667e+01
      vertex  7.683333e+00 -6.183333e+00 1.591667e+01
      vertex  7.683333e+00 -6.183333e+00 1.508333e+01
    endloop
  endfacet
  facet normal  4.082483e-01 -4.082483e-01 -8.164966e-01
    outer loop
      vertex  8.683333e+00 -5.183333e+00 1.508333e+01
      vertex  7.683333e+00 -6.183333e+00 1.508333e+01
      vertex  6.850000e+00 -5.350000e+00 1.425000e+01
    endloop
  endfacet
  facet normal  7.071068e-01 -7.071068e-01 0.000000e+00
    outer loop
      vertex  7.850000e+00 -4.350000e+00 1.425000e+01
      vertex  6.850000e+00 -5.350000e+00 1.425000e+01
      vertex  6.850000e+00 -5.350000e+00 2.600000e+00
    endloop
  endfacet
  facet normal  0.000000e+00 0.000000e+00 -1.000000e+00
    outer loop
      vertex  7.850000e+00 -4.350000e+00 2.600000e+00
      vertex  5.750000e+00 3.250000e+00 2.600000e+00
      vertex  7.850000e+00 4.350000e+00 2.600000e+00
    endloop
  endfacet
  facet normal  0.000000e+00 0.000000e+00 -1.000000e+00
    outer loop
      vertex  7.850000e+00 -4.350000e+00 2.600000e+00
      vertex  5.750000e+00 -3.250000e+00 2.600000e+00
      vertex  5.750000e+00 3.250000e+00 2.600000e+00
    endloop
  endfacet
  facet normal  0.000000e+00 0.000000e+00 -1.000000e+00
    outer loop
      vertex  7.850000e+00 -4.350000e+00 2.600000e+00
      vertex  6.850000e+00 -5.350000e+00 2.600000e+00
      vertex  5.750000e+00 -3.250000e+00 2.600000e+00
    endloop
  endfacet
  facet normal  0.000000e+00 0.000000e+00 -1.000000e+00
    outer loop
      vertex  5.750000e+00 -3.250000e+00 2.600000e+00
      vertex  6.850000e+00 -5.350000e+00 2.600000e+00
      vertex  -6.850000e+00 -5.350000e+00 2.600000e+00
    endloop
  endfacet
  facet normal  0.000000e+00 0.000000e+00 -1.000000e+00
    outer loop
      vertex  5.750000e+00 -3.250000e+00 2.600000e+00
      vertex  -6.850000e+00 -5.350000e+00 2.600000e+00
      vertex  -5.750000e+00 -3.250000e+00 2.600000e+00
    endloop
  endfacet
  facet normal  0.000000e+00 0.000000e+00 -1.000000e+00
    outer loop
      vertex  -5.750000e+00 -3.250000e+00 2.600000e+00
      vertex  -6.850000e+00 -5.350000e+00 2.600000e+00
      vertex  -7.850000e+00 -4.350000e+00 2.600000e+00
    endloop
  endfacet
  facet normal  0.000000e+00 0.000000e+00 -1.000000e+00
    outer loop
      vertex  -7.850000e+00 4.350000e+00 2.600000e+00
      vertex  -5.750000e+00 -3.250000e+00 2.600000e+00
      vertex  -7.850000e+00 -4.350000e+00 2.600000e+00
    endloop
  endfacet
  facet normal  0.000000e+00 0.000000e+00 -1.000000e+00
    outer loop
      vertex  -5.750000e+00 3.250000e+00 2.600000e+00
      vertex  -5.750000e+00 -3.250000e+00 2.600000e+00
      vertex  -7.850000e+00 4.350000e+00 2.600000e+00
    endloop
  endfacet
  facet normal  0.000000e+00 0.000000e+00 -1.000000e+00
    outer loop
      vertex  -6.850000e+00 5.350000e+00 2.600000e+00
      vertex  -5.750000e+00 3.250000e+00 2.600000e+00
      vertex  -7.850000e+00 4.350000e+00 2.600000e+00
    endloop
  endfacet
  facet normal  0.000000e+00 0.000000e+00 -1.000000e+00
    outer loop
      vertex  5.750000e+00 3.250000e+00 2.600000e+00
      vertex  -5.750000e+00 3.250000e+00 2.600000e+00
      vertex  -6.850000e+00 5.350000e+00 2.600000e+00
    endloop
  endfacet
  facet normal  0.000000e+00 0.000000e+00 -1.000000e+00
    outer loop
      vertex  6.850000e+00 5.350000e+00 2.600000e+00
      vertex  5.750000e+00 3.250000e+00 2.600000e+00
      vertex  -6.850000e+00 5.350000e+00 2.600000e+00
    endloop
  endfacet
  facet normal  0.000000e+00 0.000000e+00 -1.000000e+00
    outer loop
      vertex  7.850000e+00 4.350000e+00 2.600000e+00
      vertex  5.750000e+00 3.250000e+00 2.600000e+00
      vertex  6.850000e+00 5.350000e+00 2.600000e+00
    endloop
  endfacet
  facet normal  4.082483e-01 4.082483e-01 -8.164966e-01
    outer loop
      vertex  8.683333e+00 5.183333e+00 1.508333e+01
      vertex  7.850000e+00 4.350000e+00 1.425000e+01
      vertex  6.850000e+00 5.350000e+00 1.425000e+01
    endloop
  endfacet
  facet normal  7.071068e-01 7.071068e-01 0.000000e+00
    outer loop
      vertex  7.850000e+00 4.350000e+00 1.425000e+01
      vertex  7.850000e+00 4.350000e+00 2.600000e+00
      vertex  6.850000e+00 5.350000e+00 2.600000e+00
    endloop
  endfacet
  facet normal  7.071068e-01 0.000000e+00 -7.071068e-01
    outer loop
      vertex  8.683333e+00 5.183333e+00 1.508333e+01
      vertex  8.683333e+00 -5.183333e+00 1.508333e+01
      vertex  7.850000e+00 -4.350000e+00 1.425000e+01
    endloop
  endfacet
  facet normal  1.000000e+00 0.000000e+00 0.000000e+00
    outer loop
      vertex  7.850000e+00 4.350000e+00 1.425000e+01
      vertex  7.850000e+00 -4.350000e+00 1.425000e+01
      vertex  7.850000e+00 -4.350000e+00 2.600000e+00
    endloop
  endfacet
  facet normal  1.000000e+00 0.000000e+00 0.000000e+00
    outer loop
      vertex  -5.750000e+00 3.250000e+00 1.425000e+01
      vertex  -5.750000e+00 -3.250000e+00 1.425000e+01
      vertex  -5.750000e+00 -3.250000e+00 2.600000e+00
    endloop
  endfacet
  facet normal  0.000000e+00 -1.000000e+00 0.000000e+00
    outer loop
      vertex  5.750000e+00 3.250000e+00 1.425000e+01
      vertex  -5.750000e+00 3.250000e+00 1.425000e+01
      vertex  -5.750000e+00 3.250000e+00 2.600000e+00
    endloop
  endfacet
  facet normal  -1.000000e+00 0.000000e+00 0.000000e+00
    outer loop
      vertex  5.750000e+00 3.250000e+00 1.425000e+01
      vertex  5.750000e+00 3.250000e+00 2.600000e+00
      vertex  5.750000e+00 -3.250000e+00 2.600000e+00
    endloop
  endfacet
  facet normal  0.000000e+00 1.000000e+00 0.000000e+00
    outer loop
      vertex  5.750000e+00 -3.250000e+00 1.425000e+01
      vertex  5.750000e+00 -3.250000e+00 2.600000e+00
      vertex  -5.750000e+00 -3.250000e+00 2.600000e+00
    endloop
  endfacet
  facet normal  0.000000e+00 0.000000e+00 -1.000000e+00
    outer loop
      vertex  5.750000e+00 3.250000e+00 1.425000e+01
      vertex  5.750000e+00 -3.250000e+00 1.425000e+01
      vertex  -5.750000e+00 -3.250000e+00 1.425000e+01
    endloop
  endfacet
  facet normal  -1.000000e+00 0.000000e+00 0.000000e+00
    outer loop
      vertex  -8.683333e+00 -5.183333e+00 1.508333e+01
      vertex  -8.683333e+00 -5.183333e+00 1.591667e+01
      vertex  -8.683333e+00 5.183333e+00 1.591667e+01
    endloop
  endfacet
  facet normal  -7.071068e-01 -7.071068e-01 0.000000e+00
    outer loop
      vertex  -8.683333e+00 -5.183333e+00 1.508333e+01
      vertex  -7.683333e+00 -6.183333e+00 1.508333e+01
      vertex  -7.683333e+00 -6.183333e+00 1.591667e+01
    endloop
  endfacet
  facet normal  -4.082483e-01 -4.082483e-01 -8.164966e-01
    outer loop
      vertex  -8.683333e+00 -5.183333e+00 1.508333e+01
      vertex  -7.850000e+00 -4.350000e+00 1.425000e+01
      vertex  -6.850000e+00 -5.350000e+00 1.425000e+01
    endloop
  endfacet
  facet normal  -7.071068e-01 0.000000e+00 -7.071068e-01
    outer loop
      vertex  -8.683333e+00 -5.183333e+00 1.508333e+01
      vertex  -8.683333e+00 5.183333e+00 1.508333e+01
      vertex  -7.850000e+00 4.350000e+00 1.425000e+01
    endloop
  endfacet
  facet normal  -7.071068e-01 7.071068e-01 0.000000e+00
    outer loop
      vertex  -8.683333e+00 5.183333e+00 1.508333e+01
      vertex  -8.683333e+00 5.183333e+00 1.591667e+01
      vertex  -7.683333e+00 6.183333e+00 1.591667e+01
    endloop
  endfacet
  facet normal  -4.082483e-01 4.082483e-01 -8.164966e-01
    outer loop
      vertex  -8.683333e+00 5.183333e+00 1.508333e+01
      vertex  -7.683333e+00 6.183333e+00 1.508333e+01
      vertex  -6.850000e+00 5.350000e+00 1.425000e+01
    endloop
  endfacet
  facet normal  0.000000e+00 0.000000e+00 1.000000e+00
    outer loop
      vertex  7.683333e+00 6.183333e+00 1.591667e+01
      vertex  8.683333e+00 -5.183333e+00 1.591667e+01
      vertex  8.683333e+00 5.183333e+00 1.591667e+01
    endloop
  endfacet
  facet normal  0.000000e+00 0.000000e+00 1.000000e+00
    outer loop
      vertex  -7.683333e+00 6.183333e+00 1.591667e+01
      vertex  7.683333e+00 -6.183333e+00 1.591667e+01
      vertex  7.683333e+00 6.183333e+00 1.591667e+01
    endloop
  endfacet
  facet normal  0.000000e+00 0.000000e+00 1.000000e+00
    outer loop
      vertex  7.683333e+00 -6.183333e+00 1.591667e+01
      vertex  8.683333e+00 -5.183333e+00 1.591667e+01
      vertex  7.683333e+00 6.183333e+00 1.591667e+01
    endloop
  endfacet
  facet normal  0.000000e+00 0.000000e+00 1.000000e+00
    outer loop
      vertex  -7.683333e+00 -6.183333e+00 1.591667e+01
      vertex  7.683333e+00 -6.183333e+00 1.591667e+01
      vertex  -7.683333e+00 6.183333e+00 1.591667e+01
    endloop
  endfacet
  facet normal  0.000000e+00 0.000000e+00 1.000000e+00
    outer loop
      vertex  -7.683333e+00 -6.183333e+00 1.591667e+01
      vertex  -7.683333e+00 6.183333e+00 1.591667e+01
      vertex  -8.683333e+00 5.183333e+00 1.591667e+01
    endloop
  endfacet
  facet normal  0.000000e+00 -1.000000e+00 0.000000e+00
    outer loop
      vertex  -7.683333e+00 -6.183333e+00 1.508333e+01
      vertex  7.683333e+00 -6.183333e+00 1.508333e+01
      vertex  7.683333e+00 -6.183333e+00 1.591667e+01
    endloop
  endfacet
  facet normal  0.000000e+00 -7.071068e-01 -7.071068e-01
    outer loop
      vertex  -7.683333e+00 -6.183333e+00 1.508333e+01
      vertex  -6.850000e+00 -5.350000e+00 1.425000e+01
      vertex  6.850000e+00 -5.350000e+00 1.425000e+01
    endloop
  endfacet
  facet normal  0.000000e+00 -1.000000e+00 0.000000e+00
    outer loop
      vertex  -6.850000e+00 -5.350000e+00 2.600000e+00
      vertex  6.850000e+00 -5.350000e+00 2.600000e+00
      vertex  6.850000e+00 -5.350000e+00 1.425000e+01
    endloop
  endfacet
  facet normal  -7.071068e-01 -7.071068e-01 0.000000e+00
    outer loop
      vertex  -7.850000e+00 -4.350000e+00 2.600000e+00
      vertex  -6.850000e+00 -5.350000e+00 2.600000e+00
      vertex  -6.850000e+00 -5.350000e+00 1.425000e+01
    endloop
  endfacet
  facet normal  -1.000000e+00 0.000000e+00 0.000000e+00
    outer loop
      vertex  -7.850000e+00 -4.350000e+00 2.600000e+00
      vertex  -7.850000e+00 -4.350000e+00 1.425000e+01
      vertex  -7.850000e+00 4.350000e+00 1.425000e+01
    endloop
  endfacet
  facet normal  -7.071068e-01 7.071068e-01 0.000000e+00
    outer loop
      vertex  -7.850000e+00 4.350000e+00 2.600000e+00
      vertex  -7.850000e+00 4.350000e+00 1.425000e+01
      vertex  -6.850000e+00 5.350000e+00 1.425000e+01
    endloop
  endfacet
  facet normal  0.000000e+00 1.000000e+00 0.000000e+00
    outer loop
      vertex  -7.683333e+00 6.183333e+00 1.508333e+01
      vertex  -7.683333e+00 6.183333e+00 1.591667e+01
      vertex  7.683333e+00 6.183333e+00 1.591667e+01
    endloop
  endfacet
  facet normal  0.000000e+00 7.071068e-01 -7.071068e-01
    outer loop
      vertex  -7.683333e+00 6.183333e+00 1.508333e+01
      vertex  7.683333e+00 6.183333e+00 1.508333e+01
      vertex  6.850000e+00 5.350000e+00 1.425000e+01
    endloop
  endfacet
  facet normal  0.000000e+00 1.000000e+00 0.000000e+00
    outer loop
      vertex  -6.850000e+00 5.350000e+00 2.600000e+00
      vertex  -6.850000e+00 5.350000e+00 1.425000e+01
      vertex  6.850000e+00 5.350000e+00 1.425000e+01
    endloop
  endfacet
  facet normal  7.071068e-01 7.071068e-01 0.000000e+00
    outer loop
      vertex  7.683333e+00 6.183333e+00 1.508333e+01
      vertex  7.683333e+00 6.183333e+00 1.591667e+01
      vertex  8.683333e+00 5.183333e+00 1.591667e+01
    endloop
  endfacet
  facet normal  1.000000e+00 0.000000e+00 0.000000e+00
    outer loop
      vertex  8.683333e+00 -5.183333e+00 1.508333e+01
      vertex  8.683333e+00 5.183333e+00 1.508333e+01
      vertex  8.683333e+00 5.183333e+00 1.591667e+01
    endloop
  endfacet
  facet normal  7.071068e-01 -7.071068e-01 0.000000e+00
    outer loop
      vertex  7.683333e+00 -6.183333e+00 1.508333e+01
      vertex  8.683333e+00 -5.183333e+00 1.508333e+01
      vertex  8.683333e+00 -5.183333e+00 1.591667e+01
    endloop
  endfacet
  facet normal  4.082483e-01 -4.082483e-01 -8.164966e-01
    outer loop
      vertex  6.850000e+00 -5.350000e+00 1.425000e+01
      vertex  7.850000e+00 -4.350000e+00 1.425000e+01
      vertex  8.683333e+00 -5.183333e+00 1.508333e+01
    endloop
  endfacet
  facet normal  7.071068e-01 -7.071068e-01 0.000000e+00
    outer loop
      vertex  6.850000e+00 -5.350000e+00 2.600000e+00
      vertex  7.850000e+00 -4.350000e+00 2.600000e+00
      vertex  7.850000e+00 -4.350000e+00 1.425000e+01
    endloop
  endfacet
  facet normal  4.082483e-01 4.082483e-01 -8.164966e-01
    outer loop
      vertex  6.850000e+00 5.350000e+00 1.425000e+01
      vertex  7.683333e+00 6.183333e+00 1.508333e+01
      vertex  8.683333e+00 5.183333e+00 1.508333e+01
    endloop
  endfacet
  facet normal  7.071068e-01 7.071068e-01 0.000000e+00
    outer loop
      vertex  6.850000e+00 5.350000e+00 2.600000e+00
      vertex  6.850000e+00 5.350000e+00 1.425000e+01
      vertex  7.850000e+00 4.350000e+00 1.425000e+01
    endloop
  endfacet
  facet normal  7.071068e-01 0.000000e+00 -7.071068e-01
    outer loop
      vertex  7.850000e+00 -4.350000e+00 1.425000e+01
      vertex  7.850000e+00 4.350000e+00 1.425000e+01
      vertex  8.683333e+00 5.183333e+00 1.508333e+01
    endloop
  endfacet
  facet normal  1.000000e+00 0.000000e+00 0.000000e+00
    outer loop
      vertex  7.850000e+00 -4.350000e+00 2.600000e+00
      vertex  7.850000e+00 4.350000e+00 2.600000e+00
      vertex  7.850000e+00 4.350000e+00 1.425000e+01
    endloop
  endfacet
  facet normal  1.000000e+00 0.000000e+00 -0.000000e+00
    outer loop
      vertex  -5.750000e+00 -3.250000e+00 2.600000e+00
      vertex  -5.750000e+00 3.250000e+00 2.600000e+00
      vertex  -5.750000e+00 3.250000e+00 1.425000e+01
    endloop
  endfacet
  facet normal  -0.000000e+00 -1.000000e+00 -0.000000e+00
    outer loop
      vertex  -5.750000e+00 3.250000e+00 2.600000e+00
      vertex  5.750000e+00 3.250000e+00 2.600000e+00
      vertex  5.750000e+00 3.250000e+00 1.425000e+01
    endloop
  endfacet
  facet normal  -1.000000e+00 -0.000000e+00 -0.000000e+00
    outer loop
      vertex  5.750000e+00 -3.250000e+00 2.600000e+00
      vertex  5.750000e+00 -3.250000e+00 1.425000e+01
      vertex  5.750000e+00 3.250000e+00 1.425000e+01
    endloop
  endfacet
  facet normal  -0.000000e+00 1.000000e+00 0.000000e+00
    outer loop
      vertex  -5.750000e+00 -3.250000e+00 2.600000e+00
      vertex  -5.750000e+00 -3.250000e+00 1.425000e+01
      vertex  5.750000e+00 -3.250000e+00 1.425000e+01
    endloop
  endfacet
  facet normal  -0.000000e+00 -0.000000e+00 -1.000000e+00
    outer loop
      vertex  -5.750000e+00 -3.250000e+00 1.425000e+01
      vertex  -5.750000e+00 3.250000e+00 1.425000e+01
      vertex  5.750000e+00 3.250000e+00 1.425000e+01
    endloop
  endfacet
endsolid foo
